<svg id="chart" width="333" height="150" viewBox="0 0 333 150" xmlns="http://www.w3.org/2000/svg">
    <path d="  M0,150  h13.32  v--2.5935495128827597  q0,-4 -4,-4  h-5.32  q-4,0 -4,4  Z" fill="#444cf7" />
    <path d="  M16.65,150  h13.32  v-3.54148915782838  q0,-4 -4,-4  h-5.32  q-4,0 -4,4  Z" fill="#444cf7" />
    <path d="  M33.3,150  h13.32  v-5.425920981911844  q0,-4 -4,-4  h-5.32  q-4,0 -4,4  Z" fill="#444cf7" />
    <path d="  M49.949999999999996,150  h13.32  v-12.706872944355666  q0,-4 -4,-4  h-5.32  q-4,0 -4,4  Z"
        fill="#444cf7" />
    <path d="  M66.6,150  h13.32  v-23.633436112963096  q0,-4 -4,-4  h-5.32  q-4,0 -4,4  Z" fill="#444cf7" />
    <path d="  M83.25,150  h13.32  v-31.37601018889113  q0,-4 -4,-4  h-5.32  q-4,0 -4,4  Z" fill="#444cf7" />
    <path d="  M99.89999999999999,150  h13.32  v-38.516256519961175  q0,-4 -4,-4  h-5.32  q-4,0 -4,4  Z"
        fill="#444cf7" />
    <path d="  M116.54999999999998,150  h13.32  v-24.761139015645583  q0,-4 -4,-4  h-5.32  q-4,0 -4,4  Z"
        fill="#444cf7" />
    <path d="  M133.2,150  h13.32  v-59.229206958855386  q0,-4 -4,-4  h-5.32  q-4,0 -4,4  Z" fill="#444cf7" />
    <path d="  M149.85,150  h13.32  v-50.83845201423742  q0,-4 -4,-4  h-5.32  q-4,0 -4,4  Z" fill="#444cf7" />
    <path d="  M166.5,150  h13.32  v-46.41463014701401  q0,-4 -4,-4  h-5.32  q-4,0 -4,4  Z" fill="#444cf7" />
    <path d="  M183.14999999999998,150  h13.32  v-82.93844970997236  q0,-4 -4,-4  h-5.32  q-4,0 -4,4  Z"
        fill="#444cf7" />
    <path d="  M199.79999999999998,150  h13.32  v-82.37397652555163  q0,-4 -4,-4  h-5.32  q-4,0 -4,4  Z"
        fill="#444cf7" />
    <path d="  M216.45,150  h13.32  v-96.01649762358862  q0,-4 -4,-4  h-5.32  q-4,0 -4,4  Z" fill="#444cf7" />
    <path d="  M233.09999999999997,150  h13.32  v-67.58120712481835  q0,-4 -4,-4  h-5.32  q-4,0 -4,4  Z"
        fill="#444cf7" />
    <path d="  M249.74999999999997,150  h13.32  v-89.6995897973278  q0,-4 -4,-4  h-5.32  q-4,0 -4,4  Z"
        fill="#444cf7" />
    <path d="  M266.4,150  h13.32  v-94.16965676463967  q0,-4 -4,-4  h-5.32  q-4,0 -4,4  Z" fill="#444cf7" />
    <path d="  M283.04999999999995,150  h13.32  v-83.94332650967596  q0,-4 -4,-4  h-5.32  q-4,0 -4,4  Z"
        fill="#444cf7" />
    <path d="  M299.7,150  h13.32  v-134.32986299665262  q0,-4 -4,-4  h-5.32  q-4,0 -4,4  Z" fill="#444cf7" />
    <path d="  M316.34999999999997,150  h13.32  v-79.09814386102077  q0,-4 -4,-4  h-5.32  q-4,0 -4,4  Z"
        fill="#444cf7" />
</svg>