<svg id="chart" width="500" height="150" viewBox="0 0 500 150" xmlns="http://www.w3.org/2000/svg">
    <path d="  M0,150  h20  v--3.7816317049606027  q0,-4 -4,-4  h-12  q-4,0 -4,4  Z" fill="#444cf7" />
    <path d="  M25,150  h20  v-0.737281494491441  q0,-4 -4,-4  h-12  q-4,0 -4,4  Z" fill="#444cf7" />
    <path d="  M50,150  h20  v-10.739985572385933  q0,-4 -4,-4  h-12  q-4,0 -4,4  Z" fill="#444cf7" />
    <path d="  M75,150  h20  v-16.698555833157315  q0,-4 -4,-4  h-12  q-4,0 -4,4  Z" fill="#444cf7" />
    <path d="  M100,150  h20  v-26.36683377539096  q0,-4 -4,-4  h-12  q-4,0 -4,4  Z" fill="#444cf7" />
    <path d="  M125,150  h20  v-23.393491295439887  q0,-4 -4,-4  h-12  q-4,0 -4,4  Z" fill="#444cf7" />
    <path d="  M150,150  h20  v-43.62328124637318  q0,-4 -4,-4  h-12  q-4,0 -4,4  Z" fill="#444cf7" />
    <path d="  M175,150  h20  v-31.79639634208681  q0,-4 -4,-4  h-12  q-4,0 -4,4  Z" fill="#444cf7" />
    <path d="  M200,150  h20  v-35.60244942286319  q0,-4 -4,-4  h-12  q-4,0 -4,4  Z" fill="#444cf7" />
    <path d="  M225,150  h20  v-63.985838592709854  q0,-4 -4,-4  h-12  q-4,0 -4,4  Z" fill="#444cf7" />
    <path d="  M250,150  h20  v-49.753459595638105  q0,-4 -4,-4  h-12  q-4,0 -4,4  Z" fill="#444cf7" />
    <path d="  M275,150  h20  v-71.93579440978434  q0,-4 -4,-4  h-12  q-4,0 -4,4  Z" fill="#444cf7" />
    <path d="  M300,150  h20  v-55.15539658167623  q0,-4 -4,-4  h-12  q-4,0 -4,4  Z" fill="#444cf7" />
    <path d="  M325,150  h20  v-74.99823108798176  q0,-4 -4,-4  h-12  q-4,0 -4,4  Z" fill="#444cf7" />
    <path d="  M350,150  h20  v-96.65514389435593  q0,-4 -4,-4  h-12  q-4,0 -4,4  Z" fill="#444cf7" />
    <path d="  M375,150  h20  v-107.17112330953671  q0,-4 -4,-4  h-12  q-4,0 -4,4  Z" fill="#444cf7" />
    <path d="  M400,150  h20  v-72.31225703005407  q0,-4 -4,-4  h-12  q-4,0 -4,4  Z" fill="#444cf7" />
    <path d="  M425,150  h20  v-82.3641870374081  q0,-4 -4,-4  h-12  q-4,0 -4,4  Z" fill="#444cf7" />
    <path d="  M450,150  h20  v-129.39445698663923  q0,-4 -4,-4  h-12  q-4,0 -4,4  Z" fill="#444cf7" />
    <path d="  M475,150  h20  v-105.40214243242987  q0,-4 -4,-4  h-12  q-4,0 -4,4  Z" fill="#444cf7" />
</svg>