<svg id="chart" width="1000" height="150" viewBox="0 0 1000 150" xmlns="http://www.w3.org/2000/svg">
    <path d="  M0,150  h40  v--3.2385105939939365  q0,-4 -4,-4  h-32  q-4,0 -4,4  Z" fill="#444cf7" />
    <path d="  M50,150  h40  v-2.3625216262317963  q0,-4 -4,-4  h-32  q-4,0 -4,4  Z" fill="#444cf7" />
    <path d="  M100,150  h40  v-11.996402704485092  q0,-4 -4,-4  h-32  q-4,0 -4,4  Z" fill="#444cf7" />
    <path d="  M150,150  h40  v-18.536245629645464  q0,-4 -4,-4  h-32  q-4,0 -4,4  Z" fill="#444cf7" />
    <path d="  M200,150  h40  v-16.552200972646006  q0,-4 -4,-4  h-32  q-4,0 -4,4  Z" fill="#444cf7" />
    <path d="  M250,150  h40  v-27.70807180742341  q0,-4 -4,-4  h-32  q-4,0 -4,4  Z" fill="#444cf7" />
    <path d="  M300,150  h40  v-31.399550369746606  q0,-4 -4,-4  h-32  q-4,0 -4,4  Z" fill="#444cf7" />
    <path d="  M350,150  h40  v-28.369535241238452  q0,-4 -4,-4  h-32  q-4,0 -4,4  Z" fill="#444cf7" />
    <path d="  M400,150  h40  v-40.84638680041179  q0,-4 -4,-4  h-32  q-4,0 -4,4  Z" fill="#444cf7" />
    <path d="  M450,150  h40  v-50.89235497055279  q0,-4 -4,-4  h-32  q-4,0 -4,4  Z" fill="#444cf7" />
    <path d="  M500,150  h40  v-44.85096952726602  q0,-4 -4,-4  h-32  q-4,0 -4,4  Z" fill="#444cf7" />
    <path d="  M550,150  h40  v-57.11045766590621  q0,-4 -4,-4  h-32  q-4,0 -4,4  Z" fill="#444cf7" />
    <path d="  M600,150  h40  v-80.02677691840859  q0,-4 -4,-4  h-32  q-4,0 -4,4  Z" fill="#444cf7" />
    <path d="  M650,150  h40  v-88.33394009598445  q0,-4 -4,-4  h-32  q-4,0 -4,4  Z" fill="#444cf7" />
    <path d="  M700,150  h40  v-103.40763139698066  q0,-4 -4,-4  h-32  q-4,0 -4,4  Z" fill="#444cf7" />
    <path d="  M750,150  h40  v-57.801172483244926  q0,-4 -4,-4  h-32  q-4,0 -4,4  Z" fill="#444cf7" />
    <path d="  M800,150  h40  v-95.01237775782424  q0,-4 -4,-4  h-32  q-4,0 -4,4  Z" fill="#444cf7" />
    <path d="  M850,150  h40  v-89.37429527656221  q0,-4 -4,-4  h-32  q-4,0 -4,4  Z" fill="#444cf7" />
    <path d="  M900,150  h40  v-104.97901329574341  q0,-4 -4,-4  h-32  q-4,0 -4,4  Z" fill="#444cf7" />
    <path d="  M950,150  h40  v-73.09611157082944  q0,-4 -4,-4  h-32  q-4,0 -4,4  Z" fill="#444cf7" />
</svg>